<?xml version="1.0" encoding="utf-8"?>
<svg xmlns="http://www.w3.org/2000/svg" viewBox="1.4836 2.3092 497.0329 495.3816" width="497.033px" height="495.382px" xmlns:bx="https://boxy-svg.com" preserveAspectRatio="none"><defs><linearGradient id="color-0" bx:pinned="true" gradientUnits="userSpaceOnUse"><stop style="stop-color: rgb(217, 217, 217);"/></linearGradient></defs><g transform="matrix(0.2064090073108673, 0, 0, 0.2064090073108673, 108.57682037353518, 425.6375427246094)" style="" id="object-0"><g><g transform="matrix(1, 0, 0, 1, 685.159912, -850.920044)"><path style="stroke: none; stroke-width: 1; stroke-dasharray: none; stroke-linecap: butt; stroke-dashoffset: 0; stroke-linejoin: miter; stroke-miterlimit: 4; fill-rule: nonzero; opacity: 1; fill: url(&quot;#color-0&quot;);" vector-effect="non-scaling-stroke" transform=" translate(-1206, -1202)" d="M 2252 2402 C 2164.625 2402 2077.249756 2402 1989.469971 2401.402588 C 1972.57312 2391.140625 1967.22522 2376.54541 1968.011719 2357.894287 C 1968.97937 2334.946045 1968.262817 2311.926025 1968.213867 2288.937012 C 1968.208618 2286.435791 1967.804688 2283.935303 1967.601562 2281.616699 C 1457.516602 2281.616699 948.253113 2281.616699 438.463074 2281.616699 C 438.463074 2285.612305 438.463165 2288.915283 438.463104 2292.218018 C 438.462646 2315.873291 438.131958 2339.535156 438.580231 2363.181885 C 438.86911 2378.418701 434.393005 2390.608154 420.64679 2398.483643 C 419.978821 2398.866211 420.195374 2400.79248 420 2402 C 331.958221 2402 243.916428 2402 155.611938 2401.490723 C 154.843185 2400.176514 154.53064 2399.031006 153.802383 2398.617676 C 140.121002 2390.847412 135.277481 2378.830811 135.553513 2363.535645 C 135.991989 2339.239746 135.682922 2314.929932 135.652054 2290.625977 C 135.648361 2287.723877 135.407272 2284.82251 135.231079 2280.921387 C 131.486755 2280.921387 128.226059 2280.921875 124.965378 2280.921631 C 96.999199 2280.919678 69.032211 2280.789307 41.067139 2280.9646 C 24.384472 2281.069092 12.214883 2274.544189 5.623927 2258.709961 C 5.125046 2257.511475 3.240498 2256.889893 2.000007 2256 C 2 2120.625 2 1985.249756 2.527753 1849.639404 C 3.660594 1849.180664 4.657263 1849.111084 4.814488 1848.711426 C 12.119953 1830.13623 26.494106 1824.353271 45.393353 1824.781982 C 72.041389 1825.386475 98.713417 1824.95105 125.375122 1824.913208 C 128.575195 1824.908691 131.774841 1824.61145 135.659729 1824.415161 C 135.659729 1819.651489 135.659714 1815.709717 135.659714 1811.767944 C 135.659988 1318.858643 135.696411 825.949463 135.480835 333.040283 C 135.474548 318.665375 139.82872 307.564026 150.068878 297.513153 C 184.079453 264.131165 217.779739 230.425812 251.165359 196.418732 C 261.175751 186.222031 272.151642 181.412201 286.58252 181.530579 C 343.234924 181.995346 399.893433 181.720276 456.549652 181.719971 C 460.135406 181.71994 463.72113 181.719971 468.269501 181.719971 C 468.269501 177.290314 468.26947 173.718704 468.269531 170.147095 C 468.270172 127.488281 468.434448 84.828522 468.18866 42.171131 C 468.094208 25.775713 473.261383 12.877501 488.746765 5.387877 C 489.527985 5.010037 489.598572 3.162983 490 2.000004 C 965.375122 2 1440.750244 2 1916.387451 2.528334 C 1916.900024 3.654109 1916.987915 4.590804 1917.424438 4.799962 C 1934.101685 12.791647 1938.865356 26.573513 1938.616089 44.197426 C 1938.022339 86.182594 1938.424805 128.181854 1938.424927 170.17543 C 1938.424927 173.736298 1938.424927 177.297165 1938.424927 181.717255 C 1943.111084 181.717255 1946.704224 181.717194 1950.297363 181.717255 C 2007.9552 181.718445 2065.613281 181.811584 2123.270508 181.63945 C 2134.160156 181.606934 2143.571777 184.380371 2151.367188 192.184052 C 2187.875732 228.731766 2224.4104 265.253693 2260.955078 301.765381 C 2267.908936 308.713013 2271.224854 317.178162 2271.622559 326.867523 C 2271.772705 330.52774 2271.672119 334.198578 2271.672119 337.864594 C 2271.67334 829.122742 2271.67334 1320.380859 2271.67334 1811.639038 C 2271.67334 1815.880493 2271.67334 1820.121948 2271.67334 1824.930908 C 2286.347412 1824.930908 2299.957764 1824.930176 2313.568115 1824.93103 C 2331.56543 1824.932129 2349.5625 1824.947998 2367.559814 1824.931396 C 2381.755859 1824.918335 2392.64624 1830.689331 2399.612793 1843.258423 C 2400.806885 1845.413086 2401.665283 1847.753906 2402.893066 1850.48584 C 2405.539307 1845.836914 2407.769531 1841.918457 2410 1838 C 2410 1980.708496 2410 2123.416992 2409.365479 2266.776367 C 2406.925537 2263.396973 2405.119873 2259.366699 2402.961182 2254.548828 C 2396.289307 2273.776611 2383.243652 2281.344238 2364.300537 2281.038818 C 2337.004883 2280.598877 2309.696533 2280.925781 2282.393799 2280.925537 C 2279.12793 2280.925537 2275.862305 2280.925537 2271.664551 2280.925537 C 2271.664551 2285.021484 2271.664795 2288.271484 2271.664551 2291.521484 C 2271.663574 2316.160645 2271.662598 2340.799805 2271.660889 2365.438965 C 2271.659912 2379.445801 2266.450928 2390.617432 2254.18042 2398.115234 C 2253.074951 2398.790771 2252.709229 2400.67627 2252 2402 M 2203.659424 623.000122 C 2203.659424 532.004272 2203.581299 441.008148 2203.814941 350.012878 C 2203.832764 343.080231 2201.722412 338.326172 2196.861328 333.546967 C 2171.431152 308.54483 2146.129639 283.403473 2121.238281 257.86734 C 2115.429688 251.908173 2109.717773 249.501617 2101.337402 249.507401 C 1780.027344 249.728806 1458.717163 249.694901 1137.40686 249.694901 C 859.760132 249.694916 582.113403 249.719711 304.466797 249.556747 C 297.288055 249.552536 292.156799 251.352905 287.015442 256.617126 C 262.331177 281.891205 237.381851 306.916473 212.061951 331.55246 C 205.815323 337.630341 203.49762 343.76651 203.501022 352.400726 C 203.692017 838.699097 203.670914 1324.997559 203.670944 1811.296021 C 203.670944 1813.62915 203.555161 1815.969971 203.705704 1818.293335 C 203.846115 1820.460205 204.269928 1822.608643 204.506607 1824.31543 C 250.740631 1824.31543 296.235413 1824.31543 342.34317 1824.31543 C 342.34317 1819.759766 342.34314 1815.807861 342.34314 1811.855957 C 342.34317 1352.888916 342.34317 893.921814 342.343323 434.954742 C 342.343323 431.621643 342.285431 428.287292 342.356232 424.955688 C 342.825378 402.88327 356.634888 389.047638 378.803162 388.424225 C 380.801483 388.368042 382.802673 388.410797 384.802521 388.410797 C 930.763306 388.4104 1476.724121 388.409149 2022.684937 388.432983 C 2026.672852 388.433136 2030.716064 388.418457 2034.63916 389.022522 C 2052.42334 391.760773 2063.693848 404.566162 2064.283936 422.479736 C 2064.415527 426.475342 2064.331299 430.478394 2064.331299 434.477997 C 2064.332764 893.778381 2064.332764 1353.078735 2064.332764 1812.37915 C 2064.332764 1816.292725 2064.33252 1820.206177 2064.33252 1824.322021 C 2111.213867 1824.322021 2157.027832 1824.322021 2203.65918 1824.322021 C 2203.65918 1424.140625 2203.65918 1024.570435 2203.659424 623.000122 M 1059.000488 1892.696167 C 730.138245 1892.696167 401.27597 1892.696167 72.151581 1892.696167 C 72.151581 1999.944092 72.151581 2106.121094 72.151581 2212.626465 C 826.682373 2212.626465 1580.740601 2212.626465 2335.109619 2212.626465 C 2335.109619 2105.925293 2335.109619 1999.807251 2335.109619 1892.696289 C 1910.049438 1892.696289 1485.525024 1892.696289 1059.000488 1892.696167 M 1812.999268 1824.932495 C 1873.855103 1824.932495 1934.710938 1824.932495 1995.566772 1824.932495 C 1995.566772 1573.507202 1995.566772 1323.129395 1995.566772 1072.919434 C 1843.36145 1072.919434 1691.895386 1072.919434 1539.860596 1072.919434 C 1539.860596 1076.845581 1539.86084 1080.143921 1539.860596 1083.442383 C 1539.859497 1112.437378 1539.425171 1141.440186 1539.951782 1170.425659 C 1540.89209 1222.186401 1499.300903 1262.02478 1449.754639 1260.556152 C 1424.780884 1259.815796 1399.76709 1260.430054 1374.771362 1260.431519 C 1371.521484 1260.431763 1368.271729 1260.431641 1364.01709 1260.431641 C 1364.01709 1264.5979 1364.017334 1267.832031 1364.017212 1271.066284 C 1364.016357 1304.060547 1364.038086 1337.054932 1363.984985 1370.049194 C 1363.978638 1374.032104 1364.060913 1378.117432 1363.255981 1381.978882 C 1360.11853 1397.028809 1348.025879 1407.652954 1332.330566 1408.568604 C 1321.794189 1409.183228 1311.192749 1408.685669 1299.743042 1408.685669 C 1299.743042 1423.372437 1299.484375 1436.9729 1299.828735 1450.558105 C 1300.083008 1460.591187 1297.369385 1469.423584 1292.178467 1477.959961 C 1275.225952 1505.83728 1258.672729 1533.957275 1241.761719 1561.860229 C 1238.886597 1566.604248 1237.539429 1571.288574 1237.579956 1576.850708 C 1237.78186 1604.510986 1237.672729 1632.173828 1237.671753 1659.835693 C 1237.671387 1671.500366 1237.840942 1683.168091 1237.628174 1694.828857 C 1237.229858 1716.665039 1223.630859 1730.286987 1201.979492 1730.793457 C 1198.981567 1730.863647 1195.980835 1730.80957 1192.981323 1730.80957 C 1030.009521 1730.809937 867.037598 1730.809814 704.065735 1730.809814 C 700.15332 1730.809814 696.240967 1730.809814 691.878174 1730.809814 C 691.878174 1762.547729 691.878174 1793.333984 691.878174 1824.932495 C 1065.289429 1824.932495 1438.144287 1824.932495 1812.999268 1824.932495 M 1162.789307 1663.055664 C 1164.941162 1662.735596 1167.09314 1662.415527 1169.661133 1662.033691 C 1169.661133 1633.38147 1169.545288 1605.42688 1169.759399 1577.474731 C 1169.802002 1571.912231 1168.506348 1567.212891 1165.637207 1562.474365 C 1148.912964 1534.852661 1132.644287 1506.952026 1115.692505 1479.47229 C 1109.848145 1469.998413 1106.975098 1460.342773 1107.462402 1449.27063 C 1107.930908 1438.627319 1107.602295 1427.946899 1107.53479 1417.283325 C 1107.518799 1414.738403 1107.14856 1412.195435 1106.883301 1408.941284 C 1102.621948 1408.941284 1098.999878 1408.980347 1095.378906 1408.932861 C 1088.051758 1408.836914 1080.684814 1409.139038 1073.406494 1408.480225 C 1057.156494 1407.009766 1045.216309 1394.98877 1043.406006 1378.734253 C 1043.001831 1375.104492 1042.988281 1371.418823 1042.984741 1367.758789 C 1042.953979 1335.766846 1042.966309 1303.775024 1042.965942 1271.783081 C 1042.965942 1268.25647 1042.966064 1264.729736 1042.966064 1260.428589 C 1038.358643 1260.428589 1035.087769 1260.428955 1031.816772 1260.428711 C 1006.82312 1260.42688 981.828796 1260.518188 956.836182 1260.358154 C 950.535339 1260.317871 944.12616 1260.071899 937.959961 1258.901855 C 894.43457 1250.643799 866.75 1212.473389 867.288818 1172.995117 C 867.698059 1143.008301 867.364319 1113.011475 867.361328 1083.019043 C 867.361023 1079.774536 867.361328 1076.530151 867.361328 1072.879639 C 714.608704 1072.879639 562.882568 1072.879639 410.826324 1072.879639 C 410.826324 1323.603271 410.826324 1573.72583 410.826324 1824.321289 C 481.71283 1824.321289 552.139893 1824.321289 623.450378 1824.321289 C 623.450378 1810.460083 623.447998 1797.195068 623.450867 1783.930176 C 623.457031 1754.937622 623.235962 1725.942383 623.554565 1696.953247 C 623.766052 1677.710693 636.765076 1664.533691 655.963928 1663.227905 C 659.614685 1662.979614 663.291077 1663.069336 666.955627 1663.069092 C 831.580627 1663.060425 996.205566 1663.059082 1162.789307 1663.055664 M 1700.999634 778.587524 C 1799.188232 778.587524 1897.376709 778.587524 1995.758301 778.587524 C 1995.758301 670.805115 1995.758301 564.021545 1995.758301 457.038757 C 1467.198486 457.038757 939.187744 457.038757 410.978943 457.038757 C 410.978943 564.432983 410.978943 671.217896 410.978943 777.945068 C 432.873779 780.012268 859.693481 779.034607 867.360535 776.797302 C 867.360535 773.673218 867.360413 770.381409 867.360474 767.089539 C 867.361267 738.429321 867.264343 709.768494 867.43335 681.109253 C 867.474426 674.143005 867.603638 667.015564 869.033752 660.245667 C 877.917603 618.190918 912.729553 590.403748 956.800171 590.375366 C 1121.09668 590.269592 1285.393188 590.294495 1449.689575 590.447571 C 1457.611084 590.454956 1465.730103 591.32782 1473.418091 593.194458 C 1512.784424 602.752991 1539.564331 636.907349 1539.809692 677.560486 C 1539.994751 708.219177 1539.842041 738.879822 1539.878052 769.539612 C 1539.881348 772.420776 1540.1604 775.301697 1540.332764 778.587585 C 1593.744629 778.587585 1646.37207 778.587585 1700.999634 778.587524 M 935.190552 1084.999512 C 935.190796 1113.331787 935.539795 1141.670288 935.046814 1169.993896 C 934.793152 1184.565308 943.919373 1192.630493 957.763733 1192.604614 C 1121.756348 1192.298584 1285.749878 1192.421021 1449.743164 1192.381714 C 1464.936768 1192.378052 1471.702637 1185.550903 1471.920044 1170.529175 C 1471.944092 1168.862793 1471.925293 1167.196045 1471.925293 1165.529419 C 1471.925293 1005.536011 1471.925537 845.542542 1471.924438 685.549133 C 1471.924438 682.88269 1472.036743 680.208557 1471.87854 677.551086 C 1471.214233 666.390198 1464.036255 659.175598 1452.778931 658.399902 C 1449.792603 658.194092 1446.781372 658.336609 1443.781616 658.336609 C 1283.454834 658.3349 1123.127808 658.490601 962.801941 658.130798 C 943.6026 658.087708 934.882263 664.46283 934.957947 686.016541 C 935.422668 818.342834 935.190613 950.671509 935.190552 1084.999512 M 1155.000122 70.325447 C 949.355896 70.425186 743.711731 70.524704 538.067505 70.65004 C 537.815002 70.6502 537.552917 71.025284 537.31311 71.244728 C 537.068481 71.46862 536.845825 71.716583 536.60321 71.943672 C 534.884827 103.015663 535.697937 173.955444 537.835205 181.282837 C 981.724304 181.282837 1425.591187 181.282837 1869.387695 181.282837 C 1871.338379 168.957642 1870.828735 77.634972 1868.71936 70.325447 C 1631.562744 70.325447 1394.281494 70.325447 1155.000122 70.325447 M 840.977966 1004.275085 C 849.524475 1004.275085 858.070984 1004.275085 866.434631 1004.275085 C 868.448608 987.232727 867.768982 853.871765 865.776184 846.939697 C 837.072754 844.830383 418.164154 845.895996 410.926086 848.044434 C 410.926086 899.931763 410.926086 951.764526 410.926086 1004.275085 C 553.987488 1004.275085 696.486938 1004.275085 840.977966 1004.275085 M 1559.053101 1004.271851 C 1704.546265 1004.271851 1850.039551 1004.271851 1995.64502 1004.271851 C 1995.64502 951.264893 1995.64502 899.19458 1995.64502 847.026611 C 1843.545654 847.026611 1692.111084 847.026611 1540.514404 847.026611 C 1540.514404 899.660095 1540.514404 951.743835 1540.514404 1004.271851 C 1546.468872 1004.271851 1551.768555 1004.271851 1559.053101 1004.271851 M 1110.716553 1332.272949 C 1110.933594 1335.113892 1111.150635 1337.954834 1111.354858 1340.628052 C 1135.204346 1342.596069 1288.478149 1341.709473 1295.494873 1339.696777 C 1295.494873 1313.483032 1295.494873 1287.317871 1295.494873 1261.025269 C 1233.776001 1261.025269 1172.680054 1261.025269 1110.716309 1261.025269 C 1110.716309 1284.563721 1110.716309 1307.488892 1110.716553 1332.272949 M 2103.000488 2280.895264 C 2092.013428 2280.895508 2081.025635 2280.8396 2070.039062 2280.911865 C 2058.877686 2280.985107 2047.687988 2280.578857 2036.84375 2281.187012 C 2036.84375 2299.639648 2036.84375 2316.796631 2036.84375 2333.797852 C 2092.64502 2333.797852 2147.777588 2333.797852 2203.175293 2333.797852 C 2203.175293 2316.112549 2203.175293 2298.989014 2203.175293 2280.894287 C 2170.115723 2280.894287 2137.558105 2280.894287 2103.000488 2280.895264 M 323.000366 2280.903809 C 283.442322 2280.903809 243.884247 2280.903809 204.07196 2280.903809 C 204.07196 2299.121582 204.07196 2316.306885 204.07196 2333.884766 C 259.586121 2333.884766 314.678223 2333.884766 370.153381 2333.884766 C 370.153381 2316.244385 370.153381 2299.069336 370.153381 2280.90332 C 354.844238 2280.90332 339.922302 2280.90332 323.000366 2280.903809 M 1175.497192 1423.157959 C 1175.499023 1429.472778 1175.346313 1435.793091 1175.577881 1442.099487 C 1175.671997 1444.662476 1176.002563 1447.543945 1177.248779 1449.684814 C 1185.578369 1463.99353 1194.184204 1478.141357 1202.801758 1492.510376 C 1203.959717 1491.612061 1204.988037 1491.173706 1205.456543 1490.397461 C 1213.693726 1476.754272 1221.902588 1463.093262 1229.993652 1449.363281 C 1230.958374 1447.726196 1231.675537 1445.670532 1231.701538 1443.797729 C 1231.858154 1432.553101 1231.779297 1421.305298 1231.779297 1409.613892 C 1212.736572 1409.613892 1194.396362 1409.613892 1175.494995 1409.613892 C 1175.494995 1413.969971 1175.494995 1417.59668 1175.497192 1423.157959 z" stroke-linecap="round"/></g><g transform="matrix(1, 0, 0, 1, 1184.119995, 0.079956)"><path style="stroke: none; stroke-width: 1; stroke-dasharray: none; stroke-linecap: butt; stroke-dashoffset: 0; stroke-linejoin: miter; stroke-miterlimit: 4; fill-rule: nonzero; opacity: 1; fill: url(&quot;#color-0&quot;);" vector-effect="non-scaling-stroke" transform=" translate(-1704.97, -2052.98)" d="M 1430.311646 2054 C 1430.312866 2034.001221 1430.163574 2015.000977 1430.359009 1996.004272 C 1430.541992 1978.218018 1440.239868 1965.056763 1456.031616 1961.001831 C 1459.521484 1960.105835 1463.275635 1959.943726 1466.908325 1959.942505 C 1625.564453 1959.893066 1784.220459 1959.873779 1942.876587 1959.929932 C 1965.151733 1959.937744 1979.286133 1973.640259 1979.464722 1995.932495 C 1979.769165 2033.92749 1979.761841 2071.928223 1979.467773 2109.92334 C 1979.295288 2132.206543 1965.158081 2146.014893 1942.94812 2146.023682 C 1784.291992 2146.087646 1625.635986 2146.085449 1466.979858 2146.026611 C 1444.350342 2146.018311 1430.526001 2131.939941 1430.344849 2108.996094 C 1430.202759 2090.998535 1430.313354 2072.998779 1430.311646 2054 M 1535.001465 2027.803223 C 1523.091309 2027.803223 1511.181152 2027.803223 1498.328735 2027.803223 C 1498.328735 2031.634644 1498.328735 2034.542847 1498.328735 2037.451172 C 1498.328735 2050.699219 1498.328735 2063.947266 1498.328735 2077.666748 C 1636.363159 2077.666748 1773.480469 2077.666748 1911.0896 2077.666748 C 1911.0896 2061.075439 1911.0896 2044.929688 1911.0896 2027.803223 C 1786.097412 2027.803223 1661.549194 2027.803223 1535.001465 2027.803223 z" stroke-linecap="round"/></g><g transform="matrix(1, 0, 0, 1, 278.079956, -0.040039)"><path style="stroke: none; stroke-width: 1; stroke-dasharray: none; stroke-linecap: butt; stroke-dashoffset: 0; stroke-linejoin: miter; stroke-miterlimit: 4; fill-rule: nonzero; opacity: 1; fill: url(&quot;#color-0&quot;);" vector-effect="non-scaling-stroke" transform=" translate(-803.29, -2052.88)" d="M 844.452271 1969.383301 C 878.040283 1987.608643 896.05304 2015.075684 896.207825 2052.701904 C 896.3573 2089.034424 879.713684 2116.748535 848.147766 2134.435303 C 792.304138 2165.725342 721.568909 2131.251221 711.744507 2068.331787 C 706.19519 2032.791748 717.488953 2002.919067 745.296143 1980.531006 C 773.491638 1957.829956 805.400146 1954.023315 839.227905 1967.013306 C 840.77771 1967.608398 842.271301 1968.349609 844.452271 1969.383301 M 780.566406 2042.223145 C 779.930115 2044.116211 779.085388 2045.966919 778.69104 2047.90918 C 775.995667 2061.184326 784.570801 2074.501221 797.712463 2077.586182 C 810.77063 2080.651367 824.822693 2072.123535 827.849304 2059.296875 C 831.028198 2045.824707 823.388 2032.466797 810.333069 2028.671875 C 799.341858 2025.476807 789.420593 2029.667725 780.566406 2042.223145 z" stroke-linecap="round"/></g><path style="stroke: none; stroke-width: 1; stroke-dasharray: none; stroke-linecap: butt; stroke-dashoffset: 0; stroke-linejoin: miter; stroke-miterlimit: 4; fill-rule: nonzero; opacity: 1; fill: url(&quot;#color-0&quot;);" vector-effect="non-scaling-stroke" d="M -4.491 93.066 C -51.046 89.698 -87.827 55.147 -92.606 11.126 C -97.61 -34.959 -69.508 -76.932 -25.209 -89.538 C 25.345 -103.92 78.205 -72.968 90.578 -21.73 C 103.039 29.877 69.506 81.758 17.267 91.346 C 10.444 92.598 3.381 92.544 -4.491 93.066 M 8.049 23.823 C 10.405 22.612 12.979 21.697 15.08 20.142 C 24.329 13.294 27.592 1.289 23.297 -9.292 C 18.842 -20.267 7.76 -26.577 -4.004 -24.838 C -14.643 -23.264 -23.615 -14.159 -24.931 -3.6 C -26.434 8.459 -20.351 19.565 -9.032 23.286 C -4.222 24.867 1.344 24.146 8.049 23.823 Z" stroke-linecap="round"/></g></g></svg>