<?xml version="1.0" encoding="utf-8"?>
<svg xmlns="http://www.w3.org/2000/svg" viewBox="0 0 500 500" xmlns:bx="https://boxy-svg.com" width="225px" height="225px"><defs><linearGradient id="color-0" gradientUnits="userSpaceOnUse"><stop style="stop-color: rgb(0, 45, 181);"/></linearGradient></defs><g style="" transform="matrix(0.311569, 0, 0, 0.311569, 133.56044, 186.798248)"><g id="Layer_1"><path opacity="1.000000" stroke="none" d="M 420.719 1002.85 C 389.699 1002.85 358.678 1002.85 327.446 1002.46 C 325.83 1001.73 324.438 1001.15 323.018 1001.07 C 286.073 999.049 249.5 994.027 213.298 986.59 C 148.318 973.242 85.889 952.178 26.217 923.125 C -69.033 876.75 -152.04 814.118 -222.62 735.108 C -297.16 651.668 -351.93 556.773 -386.91 450.479 C -400.49 409.205 -410.68 367.079 -416.95 324.111 C -420.34 300.919 -421.98 277.473 -424.51 254.152 C -424.67 252.671 -425.67 251.282 -426.28 249.85 C -426.28 218.829 -426.28 187.808 -425.89 156.571 C -425.16 154.945 -424.67 153.552 -424.51 152.122 C -421.79 127.491 -419.81 102.753 -416.27 78.242 C -408.79 26.46 -395.4 -23.914 -377.13 -72.911 C -328.11 -204.38 -250.09 -315.66 -143.35 -406.73 C -75.109 -464.94 0.919 -510.26 84.46 -542.87 C 144.429 -566.28 206.358 -582.25 270.259 -590.25 C 287.752 -592.44 305.368 -593.64 322.917 -595.4 C 324.23 -595.53 325.454 -596.55 326.719 -597.15 C 357.74 -597.15 388.761 -597.15 419.998 -596.76 C 421.791 -596.02 423.351 -595.52 424.947 -595.34 C 450.415 -592.53 476.038 -590.73 501.33 -586.79 C 564.133 -577.03 624.835 -559.47 683.364 -534.62 C 793.846 -487.73 889.213 -419.58 969.331 -330.23 C 1043.58 -247.43 1098.27 -153.18 1133.39 -47.645 C 1147.85 -4.196 1158.72 40.163 1164.82 85.57 C 1167.79 107.661 1169.55 129.912 1171.96 152.081 C 1172.1 153.385 1173.11 154.596 1173.72 155.85 C 1173.72 186.871 1173.72 217.892 1173.33 249.117 C 1172.6 250.721 1172.02 252.109 1171.94 253.525 C 1170.07 286.129 1165.87 318.434 1159.87 350.529 C 1144.08 434.946 1115.23 514.658 1073.54 589.697 C 1023.99 678.887 959.723 755.922 880.955 820.737 C 802.452 885.334 714.758 933.341 617.989 964.592 C 574.43 978.659 529.995 989.135 484.556 994.908 C 464.429 997.466 444.174 999.017 423.988 1001.12 C 422.851 1001.24 421.807 1002.25 420.719 1002.85 M -289.38 48.23 C -300.22 93.909 -305.9 140.267 -307 187.157 C -308.47 249.586 -301.83 311.218 -285.96 371.613 C -246.67 521.126 -166.2 644.085 -44.666 739.47 C 55.192 817.846 168.71 864.186 294.945 879.036 C 341.11 884.466 387.295 885.041 433.605 881.013 C 484.512 876.585 534.349 866.869 582.823 850.784 C 739.048 798.945 861.697 703.516 950.015 564.759 C 1016.81 459.817 1050.76 344.435 1054.39 220.184 C 1055.8 171.927 1051.7 124.042 1042.78 76.556 C 1032.64 22.587 1016.29 -29.415 993.357 -79.263 C 946.132 -181.9 877.898 -268.01 788.283 -336.84 C 681.73 -418.66 561.214 -464.84 427.344 -475.94 C 389.418 -479.09 351.466 -478.7 313.524 -475.31 C 276.328 -471.99 239.658 -465.77 203.522 -456.43 C 130.845 -437.64 63.128 -407.62 0.448 -366.3 C -86.185 -309.19 -156.32 -236.15 -209.99 -147.4 C -246.7 -86.699 -273.02 -21.681 -289.38 48.23 Z" style="stroke-width: 1; fill: url(&quot;#color-0&quot;);"/><path opacity="1.000000" stroke="none" d="M 226.518 275.63 C 238.463 233.906 250.726 192.687 261.929 151.182 C 266.112 135.686 268.035 119.556 270.607 103.654 C 273.526 85.608 257.521 71.338 243.076 70.977 C 226.131 70.553 209.159 71.173 192.2 71.41 C 188.739 71.458 185.283 71.817 181.207 72.071 C 183.453 65.531 185.507 59.602 187.527 53.663 C 192.016 40.464 196.39 27.223 201.089 14.099 C 201.709 12.365 203.784 10.214 205.467 9.932 C 275.657 -1.84 345.879 -13.425 416.098 -25.021 C 434.638 -28.083 453.373 -30.264 471.683 -34.353 C 496.488 -39.892 521.409 -35.233 546.836 -37.63 C 542.187 -21.428 537.781 -6.016 533.341 9.386 C 482.262 186.598 431.094 363.784 380.222 541.056 C 375.056 559.058 371.745 577.588 367.397 595.832 C 366.144 601.092 369.4 604.446 372.653 606.744 C 374.385 607.967 378.939 606.905 381.186 605.366 C 388.023 600.683 394.846 595.775 400.801 590.047 C 424.103 567.63 442.318 541.097 460.667 514.705 C 467.017 505.572 473.262 496.365 479.744 486.916 C 497.917 497.382 515.693 507.62 533.388 517.811 C 504.087 568.505 472.831 617.318 432.052 659.295 C 402.554 689.661 369.855 715.58 329.965 731.072 C 291.692 745.935 252.386 750.636 212.781 737.739 C 170.489 723.966 143.155 695.374 134.274 651.004 C 129.853 628.921 131.756 606.704 137.381 585.149 C 146.18 551.43 155.981 517.966 165.677 484.487 C 185.812 414.966 206.157 345.506 226.518 275.63 Z" style="stroke-width: 1; fill: url(&quot;#color-0&quot;);"/><path opacity="1.000000" stroke="none" d="M 356.684 -174.15 C 333.088 -219.34 339.457 -277.32 373.123 -317.71 C 403.028 -353.59 441.703 -368.78 488.234 -364.4 C 555.645 -358.06 594.544 -300.8 602.021 -256.2 C 615.345 -176.71 557.62 -111.42 488.543 -102.29 C 446.326 -96.706 411.116 -111.11 381.406 -140.65 C 371.54 -150.45 363.315 -161.49 356.684 -174.15 Z" style="stroke-width: 1; fill: url(&quot;#color-0&quot;);"/></g></g></svg>