<svg xmlns="http://www.w3.org/2000/svg" xmlns:xlink="http://www.w3.org/1999/xlink" height="2844.4" preserveAspectRatio="xMidYMid meet" version="1.0" viewBox="295.0 577.8 3410.0 2844.4" width="3410.0" zoomAndPan="magnify"><g id="change1_1"><path d="M3705.02,1335.64c0-24.37-19.76-44.13-44.13-44.13h-249.95v-123.27c0-24.37-19.76-44.13-44.13-44.13h-820.27v-62.85 c0-18.67-11.75-35.33-29.35-41.58l-100.07-35.59l-23.01-55.55l45.6-95.92c8.02-16.87,4.55-36.95-8.65-50.15l-89.18-89.18 c-13.2-13.2-33.29-16.67-50.15-8.65l-95.92,45.6l-55.55-23.01l-35.58-100.07c-6.26-17.59-22.91-29.35-41.58-29.35h-126.13 c-18.67,0-35.33,11.75-41.58,29.35l-35.59,100.07l-55.55,23.01l-95.92-45.6c-16.86-8.02-36.95-4.55-50.15,8.65l-89.18,89.18 c-13.2,13.2-16.67,33.29-8.65,50.15l45.6,95.92l-23.01,55.55l-100.07,35.59c-17.59,6.26-29.35,22.91-29.35,41.58v62.85H633.2 c-24.37,0-44.13,19.76-44.13,44.13v123.27H339.12c-24.37,0-44.13,19.76-44.13,44.13v1931.61c0,24.37,19.76,44.13,44.13,44.13 h1428.74c16.66,0,32.22,7.43,42.69,20.38c46.48,57.48,115.53,90.45,189.45,90.45s142.97-32.97,189.45-90.45 c10.47-12.95,26.03-20.38,42.69-20.38h1428.74c24.37,0,44.13-19.76,44.13-44.13c0-1.81-0.12-3.6-0.33-5.35 c0.21-1.76,0.33-3.54,0.33-5.35V1335.64z M3322.66,2923.31H2191.04c-38.12,0-73.72,17-97.69,46.64l-49.21,60.87V1670.84h18.93 c18.67,0,35.33-11.75,41.58-29.35l35.58-100.07l55.55-23.01l95.92,45.6c16.86,8.02,36.95,4.55,50.15-8.65l89.18-89.18 c13.2-13.2,16.67-33.29,8.65-50.15l-45.6-95.92l23.01-55.55l100.07-35.58c8.98-3.19,16.43-9.1,21.58-16.59h783.91V2923.31z M1541.74,1092.4l89.2-31.72c11.77-4.18,21.21-13.16,25.99-24.69l38.02-91.8c4.78-11.54,4.45-24.56-0.92-35.84l-40.64-85.51 l45.14-45.14l85.51,40.64c11.28,5.36,24.3,5.69,35.84,0.91l91.8-38.02c11.54-4.78,20.51-14.22,24.69-25.99l31.72-89.2h63.83 l31.72,89.2c4.18,11.77,13.16,21.21,24.69,25.99l91.8,38.02c11.54,4.78,24.56,4.45,35.84-0.91l85.51-40.64l45.14,45.14l-40.65,85.5 c-5.36,11.28-5.69,24.3-0.91,35.84l38.02,91.8c4.78,11.54,14.22,20.51,25.99,24.69l89.2,31.72v63.83l-89.2,31.72 c-11.77,4.18-21.21,13.16-25.99,24.69l-38.02,91.8c-4.78,11.54-4.45,24.56,0.91,35.84l40.65,85.5l-45.14,45.14l-85.51-40.64 c-11.28-5.36-24.3-5.69-35.84-0.91l-91.8,38.02c-11.54,4.78-20.51,14.22-24.69,25.99l-31.72,89.2h-63.83l-31.72-89.2 c-4.18-11.77-13.16-21.21-24.69-25.99l-91.8-38.02c-11.54-4.78-24.56-4.45-35.84,0.91l-85.51,40.64l-45.14-45.14l40.64-85.51 c5.36-11.28,5.69-24.3,0.92-35.84l-38.02-91.8c-4.78-11.54-14.22-20.51-25.99-24.69l-89.2-31.72V1092.4z M677.34,1212.36h783.91 c5.15,7.5,12.6,13.4,21.58,16.59l100.07,35.58l23.01,55.55l-45.6,95.92c-8.02,16.86-4.55,36.95,8.65,50.15l89.18,89.18 c13.2,13.2,33.29,16.67,50.15,8.65l95.92-45.6l55.55,23.01l35.59,100.07c6.26,17.59,22.91,29.35,41.58,29.35h18.93v1359.98 l-49.21-60.87c-23.97-29.64-59.57-46.64-97.69-46.64H677.34V1212.36z M2120.82,3276.26c-29.64,36.66-73.68,57.68-120.82,57.68 s-91.18-21.02-120.81-57.68c-27.31-33.78-67.89-53.15-111.33-53.15H383.25V1379.77h205.82v1587.67c0,24.37,19.76,44.13,44.13,44.13 h1175.76c11.34,0,21.93,5.06,29.05,13.87l127.66,157.89c8.38,10.36,20.99,16.38,34.32,16.38c13.33,0,25.94-6.02,34.32-16.38 l127.66-157.89c7.13-8.82,17.72-13.87,29.05-13.87H3366.8c24.37,0,44.13-19.76,44.13-44.13V1379.77h205.82v1843.34H2232.14 C2188.7,3223.11,2148.13,3242.48,2120.82,3276.26z" fill="#d9d9d9"/><path d="M2000,1359.17c129.5,0,234.86-105.36,234.86-234.86c0-129.5-105.36-234.86-234.86-234.86 c-129.5,0-234.86,105.36-234.86,234.86C1765.14,1253.81,1870.5,1359.17,2000,1359.17z M2000,977.72 c80.83,0,146.59,65.76,146.59,146.59c0,80.83-65.76,146.59-146.59,146.59c-80.83,0-146.59-65.76-146.59-146.59 C1853.41,1043.48,1919.17,977.72,2000,977.72z" fill="#d9d9d9"/><path d="M908.12,1753.27c8.28,8.28,19.5,12.93,31.21,12.93s22.93-4.65,31.21-12.93l190.72-190.72c17.23-17.24,17.23-45.18,0-62.41 c-17.24-17.23-45.18-17.23-62.41,0l-159.52,159.52l-63.59-63.59c-17.24-17.24-45.18-17.24-62.41,0 c-17.23,17.23-17.23,45.18,0,62.41L908.12,1753.27z" fill="#d9d9d9"/><path d="M1712.32,1626.49H1206.9c-24.37,0-44.13,19.76-44.13,44.13s19.76,44.13,44.13,44.13h505.41 c24.37,0,44.13-19.76,44.13-44.13S1736.69,1626.49,1712.32,1626.49z" fill="#d9d9d9"/><path d="M908.12,2193.12c8.62,8.62,19.91,12.93,31.21,12.93s22.59-4.31,31.21-12.93l190.72-190.72c17.23-17.23,17.23-45.18,0-62.41 c-17.24-17.24-45.18-17.24-62.41,0L939.33,2099.5l-63.59-63.59c-17.24-17.23-45.18-17.23-62.41,0c-17.23,17.23-17.23,45.18,0,62.41 L908.12,2193.12z" fill="#d9d9d9"/><path d="M1712.32,2066.34H1206.9c-24.37,0-44.13,19.76-44.13,44.13s19.76,44.13,44.13,44.13h505.41 c24.37,0,44.13-19.76,44.13-44.13S1736.69,2066.34,1712.32,2066.34z" fill="#d9d9d9"/><path d="M1161.26,2379.83c-17.24-17.24-45.18-17.23-62.41,0l-159.52,159.51l-63.59-63.59c-17.24-17.23-45.18-17.23-62.41,0 c-17.23,17.24-17.23,45.18,0,62.41l94.79,94.79c8.62,8.62,19.91,12.93,31.21,12.93s22.59-4.31,31.21-12.93l190.72-190.72 C1178.49,2425.01,1178.49,2397.06,1161.26,2379.83z" fill="#d9d9d9"/><path d="M1712.32,2506.18H1206.9c-24.37,0-44.13,19.76-44.13,44.13s19.76,44.13,44.13,44.13h505.41 c24.37,0,44.13-19.76,44.13-44.13S1736.69,2506.18,1712.32,2506.18z" fill="#d9d9d9"/><path d="M2488.9,1500.14l-159.52,159.52l-63.59-63.59c-17.24-17.24-45.18-17.24-62.41,0c-17.24,17.23-17.24,45.18,0,62.41 l94.79,94.79c8.28,8.28,19.5,12.93,31.21,12.93c11.71,0,22.93-4.65,31.21-12.93l190.72-190.72c17.24-17.24,17.24-45.18,0-62.41 C2534.08,1482.9,2506.14,1482.9,2488.9,1500.14z" fill="#d9d9d9"/><path d="M2596.96,1714.76h505.41c24.37,0,44.13-19.76,44.13-44.13s-19.76-44.13-44.13-44.13h-505.41 c-24.37,0-44.13,19.76-44.13,44.13S2572.59,1714.76,2596.96,1714.76z" fill="#d9d9d9"/><path d="M2298.18,2193.12c8.62,8.62,19.91,12.93,31.21,12.93s22.59-4.31,31.21-12.93l190.72-190.72 c17.24-17.23,17.24-45.18,0-62.41c-17.24-17.23-45.18-17.24-62.41,0l-159.52,159.52l-63.59-63.59c-17.24-17.23-45.18-17.23-62.41,0 s-17.24,45.18,0,62.41L2298.18,2193.12z" fill="#d9d9d9"/><path d="M3102.38,2066.34h-505.41c-24.37,0-44.13,19.76-44.13,44.13s19.76,44.13,44.13,44.13h505.41 c24.37,0,44.13-19.76,44.13-44.13S3126.75,2066.34,3102.38,2066.34z" fill="#d9d9d9"/><path d="M2551.31,2379.83c-17.24-17.24-45.18-17.24-62.41,0l-159.52,159.51l-63.59-63.59c-17.24-17.23-45.18-17.23-62.41,0 c-17.24,17.24-17.24,45.18,0,62.41l94.79,94.79c8.62,8.62,19.91,12.93,31.21,12.93c11.29,0,22.59-4.31,31.21-12.93l190.72-190.72 C2568.55,2425.01,2568.55,2397.06,2551.31,2379.83z" fill="#d9d9d9"/><path d="M3102.38,2506.18h-505.41c-24.37,0-44.13,19.76-44.13,44.13s19.76,44.13,44.13,44.13h505.41 c24.37,0,44.13-19.76,44.13-44.13S3126.75,2506.18,3102.38,2506.18z" fill="#d9d9d9"/></g></svg>