<?xml version="1.0" encoding="utf-8"?>
<svg xmlns="http://www.w3.org/2000/svg" viewBox="22.3187 0 455.3628 500.0001" width="455.363px" height="500px" xmlns:bx="https://boxy-svg.com" preserveAspectRatio="none"><defs><linearGradient id="color-0" bx:pinned="true" gradientUnits="userSpaceOnUse"><stop style="stop-color: rgb(0, 45, 181);"/></linearGradient></defs><g id="object-1" transform="matrix(1, 0, 0, 1, 0, 7.105427357601002e-15)"><g id="surface1" transform="matrix(1.449738, 0, 0, 1.449738, -58.214245, -80.532951)"><g id="change1_1"><path d="m369.65 212.6c0 86.74-70.31 157.05-157.05 157.05s-157.05-70.31-157.05-157.05c-0.003-86.74 70.31-157.05 157.05-157.05 86.74-0.003 157.05 70.31 157.05 157.05" style="fill: url(&quot;#color-0&quot;);" id="object-0"/></g><g id="change2_1"><path d="m304.23 370.08c-7.77 5.8-16.11 10.88-24.92 15.13-1.34 0.65-2.68 1.27-4.04 1.88-19.13 8.58-40.34 13.35-62.67 13.35s-43.53-4.77-62.66-13.35c-1.37-0.61-2.72-1.23-4.05-1.88-8.81-4.26-17.15-9.33-24.91-15.13 1.36-30.36 17.49-56.88 41.38-72.54 14.43-9.47 31.69-14.97 50.24-14.97 2.83 0 5.63 0.13 8.38 0.38 15.37 1.39 29.63 6.56 41.86 14.59 11 7.21 20.35 16.72 27.37 27.84 8.24 13.05 13.27 28.32 14.02 44.7" fill="#fff"/></g><g id="change3_1"><path d="m262.84 297.54c-1.4 10.59-6.07 20.16-12.98 27.64-9.26 10.03-22.52 16.32-37.26 16.32-23.61 0-43.45-16.15-49.08-38.01-0.5-1.94-0.89-3.93-1.16-5.95 14.43-9.47 31.69-14.97 50.24-14.97 2.83 0 5.63 0.12 8.39 0.38 0.48 0.04 0.96 0.09 1.43 0.14 0.3 0.03 0.6 0.06 0.89 0.1 0.33 0.03 0.66 0.08 0.98 0.12 0.2 0.02 0.41 0.05 0.61 0.08 0.29 0.03 0.59 0.08 0.89 0.12 0.23 0.03 0.46 0.07 0.7 0.1 0.2 0.03 0.4 0.06 0.6 0.1 0.34 0.05 0.67 0.11 1.01 0.16 1.46 0.25 2.91 0.53 4.34 0.85l0.96 0.21c0.18 0.05 0.37 0.09 0.55 0.14 0.34 0.08 0.69 0.16 1.02 0.25 0.06 0.01 0.11 0.02 0.15 0.03 0.43 0.11 0.86 0.22 1.28 0.34 0.46 0.11 0.91 0.24 1.35 0.37 0.51 0.14 1.01 0.29 1.52 0.44 0.39 0.12 0.78 0.24 1.17 0.37 0.25 0.08 0.51 0.16 0.75 0.24 0.41 0.13 0.82 0.27 1.22 0.41 0.5 0.17 0.99 0.34 1.48 0.52 0.04 0.02 0.07 0.03 0.1 0.04 0.51 0.18 1.01 0.37 1.51 0.56 0.37 0.15 0.75 0.29 1.13 0.45 0.99 0.39 1.96 0.8 2.92 1.22l1.26 0.57c0.38 0.17 0.76 0.35 1.14 0.53 0.35 0.17 0.69 0.33 1.03 0.5 0.32 0.15 0.63 0.31 0.94 0.47 0.2 0.1 0.41 0.2 0.61 0.31 0.83 0.42 1.64 0.86 2.44 1.3 0.29 0.16 0.59 0.33 0.87 0.49 0.19 0.11 0.37 0.21 0.55 0.31l0.68 0.4 0.69 0.42 0.45 0.27c0.43 0.25 0.85 0.51 1.27 0.78 0.46 0.29 0.91 0.58 1.36 0.88" fill="#ba5c21"/></g><g id="change3_2"><path d="m234.93 257.42v43.93c0 11.11-9.09 20.21-20.2 20.21h-4.26c-11.11 0-20.19-9.1-20.19-20.21v-43.93c0-11.11 9.08-20.19 20.19-20.19h4.26c11.11 0 20.2 9.08 20.2 20.19" fill="#ba5c21"/></g><g id="change4_1"><path d="m234.93 257.42v23.25c-6.64 3.69-13.68 5.83-20.83 5.83-8.43 0-16.47-2.34-23.82-6.43v-22.65c0-11.11 9.08-20.19 20.19-20.19h4.26c11.11 0 20.2 9.08 20.2 20.19" fill="#9e392b"/></g><g id="change3_3"><path d="m267.05 240.48s10.46-3.56 17.14-15.22c7.26-12.66 2.7-20.55 1.26-22.26-3.93-4.67-10-1.67-11 0s-15.48 27.97-7.4 37.48" fill="#ba5c21"/></g><g id="change4_2"><path d="m277.3 207.15s6.64 0.85 4.31 10.18c-2.34 9.34-8.47 13.03-16.81 17.8-8.33 4.77 4.17-26.08 12.5-27.98" fill="#9e392b"/></g><g id="change3_4"><path d="m160.87 240.48s-10.46-3.56-17.14-15.22c-7.27-12.66-2.71-20.55-1.27-22.26 3.93-4.67 10-1.67 11 0s15.49 27.97 7.41 37.48" fill="#ba5c21"/></g><g id="change4_3"><path d="m150.61 207.15s-6.63 0.85-4.3 10.18c2.33 9.34 8.47 13.03 16.8 17.8 8.34 4.77-4.16-26.08-12.5-27.98" fill="#9e392b"/></g><g id="change3_5"><path d="m277.31 200.99c0 2.11-0.09 4.22-0.28 6.34-3.1 36.02-31.94 72.06-62.93 72.06-34.9 0-63.2-40.07-63.2-78.4 0-20.39 8.01-38.73 20.76-51.43 11.21 13.28 26.1 22.06 42.44 22.06 10.66 0 21.07-4.26 30.26-11.32 0 0 0.03-0.02 0.09-0.07 4.14-3.2 8.04-6.96 11.6-11.16 13.04 12.71 21.26 31.26 21.26 51.92" fill="#ba5c21"/></g><g id="change5_1"><path d="m258.19 139.95c-1.55 23.33-28.58 31.67-44.09 31.67-16.34 0-31.23-8.78-42.44-22.06-20.76-3.92 9.18-21.23 42.45-22.56 6.73-0.27 37.86 4.68 44.08 12.95" fill="#331520"/></g><g id="change5_2"><path d="m277.31 200.99c-0.26 2.1-0.09 4.22-0.28 6.34-1.63-2.06-4.95-3.11-4.95-12.66 0-12-2.24-20.84-9.24-29.51-6.6-8.17-17.43-5.61-18.39-4.93 4.14-3.2 8.04-17.03 11.6-21.23 26.05 10.6 23.79 41 21.26 61.99" fill="#331520"/></g><g id="change5_3"><path d="m150.16 200.99c0.25 2.1 0.09 4.22 0.28 6.34 1.62-2.06 4.95-3.11 4.95-12.66 0-12 2.23-20.84 9.23-29.51 6.61-8.17 17.43-5.61 18.4-4.93-4.14-3.2-8.04-17.03-11.61-21.23-26.05 10.6-23.78 41-21.25 61.99" fill="#331520"/></g></g></g></svg>