<?xml version="1.0" encoding="utf-8"?>
<svg xmlns="http://www.w3.org/2000/svg" viewBox="0 0 24 16.91" width="108px" height="76.094999999999px"><path d="M 23.498 2.641 C 23.222 1.602 22.414 0.788 21.376 0.505 C 19.505 0 12 0 12 0 C 12 0 4.495 0 2.623 0.505 C 1.586 0.788 0.778 1.602 0.502 2.641 C 0 4.525 0 8.455 0 8.455 C 0 8.455 0 12.385 0.502 14.269 C 0.778 15.308 1.586 16.122 2.624 16.405 C 4.495 16.91 12 16.91 12 16.91 C 12 16.91 19.505 16.91 21.377 16.405 C 22.415 16.122 23.223 15.309 23.499 14.269 C 24 12.385 24 8.455 24 8.455 C 24 8.455 24 4.525 23.498 2.641 Z M 9.545 12.023 L 9.545 4.887 L 15.818 8.455 L 9.545 12.023 Z" id="object-0" style="fill: currentcolor;"/></svg>